<svg xmlns="http://www.w3.org/2000/svg" viewBox="0 0 1920 1080" width="1920" height="1080">
<defs>
<linearGradient id="bg" x1="0" y1="0" x2="1" y2="1"><stop offset="0" stop-color="#1B2A4A"/><stop offset="1" stop-color="#2E7DAF"/></linearGradient>
<radialGradient id="bgGlow" cx="0.72" cy="0.22" r="0.8"><stop offset="0" stop-color="#fff" stop-opacity="0.18"/><stop offset="1" stop-color="#fff" stop-opacity="0"/></radialGradient>
</defs>
<rect width="1920" height="1080" fill="url(#bg)"/>
<rect width="1920" height="1080" fill="url(#bgGlow)"/>
<g transform="rotate(-14 1450 300)">
<circle cx="1450" cy="300" r="520" fill="#fff" fill-opacity="0.05"/>
<circle cx="1450" cy="300" r="330" fill="none" stroke="#fff" stroke-opacity="0.14" stroke-width="3"/>
<circle cx="1450" cy="300" r="180" fill="none" stroke="#fff" stroke-opacity="0.10" stroke-width="3"/>
</g>
<g stroke="#fff" stroke-opacity="0.08" stroke-width="3" stroke-linecap="round">
<line x1="-40" y1="840" x2="560" y2="520"/>
<line x1="-40" y1="920" x2="640" y2="560"/>
<line x1="-40" y1="1000" x2="720" y2="600"/>
</g>
<g><circle cx="1560" cy="868" r="3.4" fill="#fff" fill-opacity="0.200"/><circle cx="1560" cy="898" r="3.4" fill="#fff" fill-opacity="0.165"/><circle cx="1560" cy="928" r="3.4" fill="#fff" fill-opacity="0.130"/><circle cx="1560" cy="958" r="3.4" fill="#fff" fill-opacity="0.095"/><circle cx="1590" cy="868" r="3.4" fill="#fff" fill-opacity="0.200"/><circle cx="1590" cy="898" r="3.4" fill="#fff" fill-opacity="0.165"/><circle cx="1590" cy="928" r="3.4" fill="#fff" fill-opacity="0.130"/><circle cx="1590" cy="958" r="3.4" fill="#fff" fill-opacity="0.095"/><circle cx="1620" cy="868" r="3.4" fill="#fff" fill-opacity="0.200"/><circle cx="1620" cy="898" r="3.4" fill="#fff" fill-opacity="0.165"/><circle cx="1620" cy="928" r="3.4" fill="#fff" fill-opacity="0.130"/><circle cx="1620" cy="958" r="3.4" fill="#fff" fill-opacity="0.095"/><circle cx="1650" cy="868" r="3.4" fill="#fff" fill-opacity="0.200"/><circle cx="1650" cy="898" r="3.4" fill="#fff" fill-opacity="0.165"/><circle cx="1650" cy="928" r="3.4" fill="#fff" fill-opacity="0.130"/><circle cx="1650" cy="958" r="3.4" fill="#fff" fill-opacity="0.095"/><circle cx="1680" cy="868" r="3.4" fill="#fff" fill-opacity="0.200"/><circle cx="1680" cy="898" r="3.4" fill="#fff" fill-opacity="0.165"/><circle cx="1680" cy="928" r="3.4" fill="#fff" fill-opacity="0.130"/><circle cx="1680" cy="958" r="3.4" fill="#fff" fill-opacity="0.095"/><circle cx="1710" cy="868" r="3.4" fill="#fff" fill-opacity="0.200"/><circle cx="1710" cy="898" r="3.4" fill="#fff" fill-opacity="0.165"/><circle cx="1710" cy="928" r="3.4" fill="#fff" fill-opacity="0.130"/><circle cx="1710" cy="958" r="3.4" fill="#fff" fill-opacity="0.095"/></g>
</svg>
